<svg id="visual" viewBox="0 0 900 600" width="900" height="600" xmlns="http://www.w3.org/2000/svg" xmlns:xlink="http://www.w3.org/1999/xlink" version="1.1"><rect x="0" y="0" width="900" height="600" fill="#001220"></rect><path d="M0 394L21.5 393C43 392 86 390 128.8 399C171.7 408 214.3 428 257.2 423.7C300 419.3 343 390.7 385.8 379C428.7 367.3 471.3 372.7 514.2 376.7C557 380.7 600 383.3 642.8 395C685.7 406.7 728.3 427.3 771.2 425.2C814 423 857 398 878.5 385.5L900 373L900 601L878.5 601C857 601 814 601 771.2 601C728.3 601 685.7 601 642.8 601C600 601 557 601 514.2 601C471.3 601 428.7 601 385.8 601C343 601 300 601 257.2 601C214.3 601 171.7 601 128.8 601C86 601 43 601 21.5 601L0 601Z" fill="#b88d47"></path><path d="M0 409L21.5 413.5C43 418 86 427 128.8 438.7C171.7 450.3 214.3 464.7 257.2 466.2C300 467.7 343 456.3 385.8 454.7C428.7 453 471.3 461 514.2 460.3C557 459.7 600 450.3 642.8 441.2C685.7 432 728.3 423 771.2 430.8C814 438.7 857 463.3 878.5 475.7L900 488L900 601L878.5 601C857 601 814 601 771.2 601C728.3 601 685.7 601 642.8 601C600 601 557 601 514.2 601C471.3 601 428.7 601 385.8 601C343 601 300 601 257.2 601C214.3 601 171.7 601 128.8 601C86 601 43 601 21.5 601L0 601Z" fill="#dead5d"></path><path d="M0 486L21.5 490.7C43 495.3 86 504.7 128.8 510C171.7 515.3 214.3 516.7 257.2 512.3C300 508 343 498 385.8 499.5C428.7 501 471.3 514 514.2 509.8C557 505.7 600 484.3 642.8 483.8C685.7 483.3 728.3 503.7 771.2 504C814 504.3 857 484.7 878.5 474.8L900 465L900 601L878.5 601C857 601 814 601 771.2 601C728.3 601 685.7 601 642.8 601C600 601 557 601 514.2 601C471.3 601 428.7 601 385.8 601C343 601 300 601 257.2 601C214.3 601 171.7 601 128.8 601C86 601 43 601 21.5 601L0 601Z" fill="#f2c578"></path><path d="M0 545L21.5 540.2C43 535.3 86 525.7 128.8 529.5C171.7 533.3 214.3 550.7 257.2 555.7C300 560.7 343 553.3 385.8 545.3C428.7 537.3 471.3 528.7 514.2 529C557 529.3 600 538.7 642.8 537.7C685.7 536.7 728.3 525.3 771.2 523.7C814 522 857 530 878.5 534L900 538L900 601L878.5 601C857 601 814 601 771.2 601C728.3 601 685.7 601 642.8 601C600 601 557 601 514.2 601C471.3 601 428.7 601 385.8 601C343 601 300 601 257.2 601C214.3 601 171.7 601 128.8 601C86 601 43 601 21.5 601L0 601Z" fill="#f5d397"></path></svg>